# xmcd
#
# Track frame offsets:
#	150
#	19376
#	40502
#	56619
#	84132
#	106943
#	129705
#	151053
#	169058
#	193127
#
# Disc length: 2861 seconds
#
# Revision: 1
# Processed by: cddbd v1.5PL3 Copyright (c) Steve Scherf et al.
# Submitted via: audiograbber 1.82.02
#
DISCID=750b2b0a
DTITLE=Lighthouse Family - Whatever Gets You Through The Day
DYEAR=1900
DGENRE=Pop
TTITLE0=Run
TTITLE1=Happy
TTITLE2=Free/one
TTITLE3=End Of The Sky
TTITLE4=Life's A Dream
TTITLE5=It's A Beautiful Day
TTITLE6=You're A Star
TTITLE7=You Always Want What You Haven't Got
TTITLE8=Wish
TTITLE9=Whatever Gets You Through The Day
EXTD=
EXTT0=
EXTT1=
EXTT2=
EXTT3=
EXTT4=
EXTT5=
EXTT6=
EXTT7=
EXTT8=
EXTT9=
PLAYORDER=
